<svg width="89" height="92" viewBox="0 0 89 92" fill="none" xmlns="http://www.w3.org/2000/svg">
<path d="M88.6061 0L77.5303 80.2992L44.303 91.375L11.0758 80.2992L0 0H88.6061Z" fill="#FF2D55"/>
<path fill-rule="evenodd" clip-rule="evenodd" d="M15.9791 22.1515C15.9791 20.2718 17.5029 18.748 19.3826 18.748H35.9962C37.8759 18.748 39.3997 20.2718 39.3997 22.1515V66.4545C39.3997 67.6341 38.7889 68.7296 37.7855 69.3497C36.7821 69.9699 35.5292 70.0262 34.4741 69.4987L23.3984 63.9608C21.7171 63.1202 21.0357 61.0758 21.8763 59.3946C22.7169 57.7133 24.7613 57.0319 26.4425 57.8725L32.5927 60.9476V25.555H19.3826C17.5029 25.555 15.9791 24.0312 15.9791 22.1515Z" fill="white"/>
<path fill-rule="evenodd" clip-rule="evenodd" d="M51.0142 20.5559C52.1718 19.3983 53.7418 18.748 55.3788 18.748H69.2235C71.1032 18.748 72.627 20.2718 72.627 22.1515C72.627 24.0312 71.1032 25.555 69.2235 25.555H56.0134V40.8995H63.2597C64.1432 40.8997 65.0164 41.0895 65.8203 41.4561C66.6241 41.8228 67.3399 42.3577 67.9192 43.0248C68.4985 43.6919 68.9278 44.4755 69.1782 45.3228C69.4286 46.1701 69.4941 47.0613 69.3704 47.9361L67.055 64.1663C66.8595 65.5364 65.8538 66.6518 64.5111 66.9875L53.4353 69.7564C51.6118 70.2123 49.7639 69.1036 49.308 67.28C48.8521 65.4564 49.9608 63.6086 51.7844 63.1527L60.6395 60.9389L62.5273 47.7065H55.3788C53.7418 47.7065 52.1718 47.0562 51.0142 45.8986C49.8567 44.7411 49.2064 43.1711 49.2064 41.5341V24.9204C49.2064 23.2834 49.8567 21.7134 51.0142 20.5559Z" fill="white"/>
</svg>
